<svg width="512" height="512" viewBox="0 0 512 512" fill="none" xmlns="http://www.w3.org/2000/svg">
<path fill-rule="evenodd" clip-rule="evenodd" d="M60 0C26.8629 0 0 26.863 0 60V452C0 485.137 26.8629 512 60 512H452C485.137 512 512 485.137 512 452V60C512 26.863 485.137 0 452 0H60ZM179.552 325.251C180.218 336.956 183.217 347.292 188.551 356.258L188.399 356.19L157.638 388.22L133.744 413.099C127.686 406.999 122.304 400.376 117.599 393.277C103.389 372.698 96 349.832 96 324.107L179.552 325.251ZM220.459 416.21L255.435 390.849C257.57 390.944 259.748 390.991 261.968 390.991C281.862 390.991 298.344 386.989 310.849 378.414C323.354 369.84 330.174 357.835 330.174 342.4C330.174 332.11 326.195 323.536 319.375 317.247C312.554 310.959 302.323 305.814 289.819 302.384C277.314 298.954 257.421 294.381 231.275 288.665C205.13 284.092 182.963 277.803 165.343 269.8C147.155 261.797 132.945 250.364 121.577 234.929C110.209 219.495 105.094 198.915 105.094 173.191C105.094 150.324 111.346 129.173 123.851 110.88C136.355 92.5874 153.975 78.2961 176.71 68.0063C199.446 57.7166 225.023 52 253.442 52C282.43 52 308.575 57.7166 331.879 68.5779C355.183 79.4395 373.371 94.3025 387.012 113.167C400.654 132.603 407.474 153.754 408.043 177.764H324.49C322.217 160.614 315.396 146.895 302.892 136.605C290.387 126.315 273.904 120.598 253.442 120.598C234.117 120.598 219.339 124.6 207.972 132.603C196.604 140.606 190.92 152.04 190.92 166.902C190.92 177.764 194.33 186.339 201.151 192.055C207.972 197.772 217.634 202.917 230.138 206.347C242.643 209.776 261.968 214.35 288.114 218.923C314.259 224.068 336.995 230.356 355.183 237.788C373.371 245.219 387.581 256.652 398.948 271.515C410.316 286.378 416 306.386 416 331.539C416 356.12 409.179 377.843 396.106 397.279C382.465 416.715 364.277 431.578 340.405 442.44C316.533 453.873 290.387 459.018 260.831 459.018C231.495 459.018 205.056 454.162 181.514 444.45L220.459 416.21Z" fill="#171717"/>
</svg>
